# xmcd
#
# Track frame offsets:
#	150
#	21024
#	46350
#	64183
#	83584
#	101908
#	117853
#	144356
#	162380
#	183051
#	206860
#	228551
#	247446
#	267924
#	287000
#	301161
#
# Disc length: 4238 seconds
#
# Revision: 0
# Processed by: cddbd v1.5.2PL0 Copyright (c) Steve Scherf et al.
# Submitted via: dBpowerAMP V4.0
#
DISCID=e4108c10
DTITLE=Makaveli Part 6 - Feel The Fury
DYEAR=2003
DGENRE=Gangsta rap
TTITLE0=Kiluminatti
TTITLE1=Struggle Continues
TTITLE2=When Thugs Cry
TTITLE3=Slipping Intro Darkness
TTITLE4=Ready For Whatever
TTITLE5=Cool To Fuck
TTITLE6=We Do This 
TTITLE7=Raise Up Off These Nuts
TTITLE8=Street Fame
TTITLE9=Thug In Me
TTITLE10=World Wide Mob Figures
TTITLE11=Grab The Mic
TTITLE12=n/a
TTITLE13=what Goes ON
TTITLE14=Do 4 Love [Freestyle]
TTITLE15=Id Rather Be ya Lover
EXTD=
EXTT0=
EXTT1=
EXTT2=
EXTT3=
EXTT4=
EXTT5=
EXTT6=
EXTT7=
EXTT8=
EXTT9=
EXTT10=
EXTT11=
EXTT12=
EXTT13=
EXTT14=
EXTT15=
PLAYORDER=
